<svg width="27" height="28" viewBox="0 0 27 28" fill="none" xmlns="http://www.w3.org/2000/svg">
<g clip-path="url(#clip0_12_312)">
<path d="M13.6668 5.02561C14.8847 5.02561 15.8719 4.03834 15.8719 2.82048C15.8719 1.60263 14.8847 0.615356 13.6668 0.615356C12.4489 0.615356 11.4617 1.60263 11.4617 2.82048C11.4617 4.03834 12.4489 5.02561 13.6668 5.02561Z" fill="#FEFEFE"/>
<path d="M13.6668 16.0516C14.8847 16.0516 15.8719 15.0643 15.8719 13.8465C15.8719 12.6286 14.8847 11.6414 13.6668 11.6414C12.4489 11.6414 11.4617 12.6286 11.4617 13.8465C11.4617 15.0643 12.4489 16.0516 13.6668 16.0516Z" fill="#FEFEFE"/>
<path d="M13.6668 27.0766C14.8847 27.0766 15.8719 26.0893 15.8719 24.8715C15.8719 23.6536 14.8847 22.6663 13.6668 22.6663C12.4489 22.6663 11.4617 23.6536 11.4617 24.8715C11.4617 26.0893 12.4489 27.0766 13.6668 27.0766Z" fill="#FEFEFE"/>
</g>
<defs>
<clipPath id="clip0_12_312">
<rect width="26.4615" height="26.4615" fill="white" transform="translate(0.435913 0.615356)"/>
</clipPath>
</defs>
</svg>
